<svg width="27" height="27" viewBox="0 0 27 27" fill="none" xmlns="http://www.w3.org/2000/svg">
<g clip-path="url(#clip0)">
<path d="M16.5133 17.2997C16.0751 17.6752 15.6548 18.0419 15.2166 18.3912C14.0897 19.2819 12.7929 19.701 11.362 19.7709C10.5213 19.8146 9.68961 19.8058 8.87577 19.5788C6.8993 19.0374 5.72773 17.745 5.33422 15.7977C5.05698 14.453 5.15535 13.117 5.70984 11.8421C6.23749 10.637 7.13182 9.7376 8.29445 9.10015C9.31399 8.53256 10.4319 8.2182 11.5856 8.05229C12.9271 7.86018 14.2775 7.7292 15.628 7.56328C15.6995 7.55455 15.7889 7.57202 15.78 7.4585C15.7532 6.80358 15.78 6.13994 15.6906 5.49375C15.5475 4.50702 14.8857 3.91323 13.8751 3.76478C12.9807 3.62506 12.1401 3.76478 11.3888 4.29744C10.9238 4.62927 10.6376 5.09207 10.4856 5.63347C10.4408 5.79065 10.3961 5.95656 10.3156 6.09628C10.1725 6.34951 9.94896 6.44556 9.64489 6.41063C8.60747 6.28838 7.57004 6.19233 6.52368 6.07881C6.38059 6.06135 6.21961 6.02642 6.0944 5.96529C5.83505 5.84304 5.73667 5.59854 5.79033 5.31911C6.22855 3.17099 7.48061 1.67779 9.51968 0.813298C10.736 0.298099 12.0149 0.0797942 13.3295 0.0361332C14.5548 -0.00752774 15.7532 0.114723 16.9247 0.481475C17.8906 0.787102 18.7671 1.24118 19.4736 1.95722C20.2338 2.73438 20.6183 3.66873 20.7346 4.71659C20.8151 5.45009 20.833 6.20106 20.8419 6.9433C20.8508 8.96043 20.8598 10.9863 20.8419 13.0034C20.833 13.9989 21.1191 14.8896 21.7362 15.6842C21.8704 15.8589 22.0045 16.0248 22.1297 16.1994C22.1923 16.278 22.2549 16.3653 22.2997 16.4614C22.4606 16.7845 22.407 17.029 22.1208 17.2647C21.3517 17.9022 20.5825 18.5484 19.8134 19.1858C19.6614 19.3081 19.5183 19.4391 19.3573 19.5526C19.0622 19.7447 18.7313 19.7185 18.454 19.5002C17.837 19.0112 17.3004 18.4523 16.8621 17.7974C16.7459 17.614 16.6296 17.4569 16.5133 17.2997ZM15.7889 10.3227C14.519 10.3401 13.2848 10.4187 12.149 10.9601C11.684 11.1784 11.2815 11.4753 11.0043 11.9032C10.3246 12.9598 10.262 14.0862 10.7807 15.2127C11.04 15.789 11.5409 16.1383 12.1848 16.2518C12.8734 16.3741 13.5173 16.2344 14.0897 15.8414C14.8499 15.3262 15.2971 14.5927 15.5475 13.7457C15.8694 12.6367 15.7621 11.484 15.7889 10.3227Z" fill="white"/>
<path d="M13.8035 26.3288C9.91313 26.3026 6.69354 25.1674 3.80486 23.0717C2.77638 22.3294 1.84628 21.4824 0.996663 20.5568C0.90723 20.4607 0.85357 20.321 0.835684 20.1988C0.817797 20.0241 0.96089 19.9455 1.12187 20.0154C1.19342 20.0416 1.24708 20.094 1.30968 20.1376C3.32192 21.5348 5.50408 22.5739 7.87406 23.2638C9.06352 23.6131 10.2798 23.8576 11.514 23.9885C12.4262 24.0846 13.3384 24.137 14.2596 24.1195C16.3434 24.0671 18.3645 23.7004 20.3321 23.0542C21.3605 22.7136 22.3622 22.3032 23.3281 21.8142C23.3638 21.7968 23.3996 21.7793 23.4354 21.7618C23.7037 21.6308 23.8736 21.6483 24.0078 21.8229C24.1509 22.0063 24.124 22.2596 23.9362 22.4429C23.7395 22.635 23.5248 22.8097 23.3102 22.9843C21.2711 24.5649 18.9548 25.5516 16.4149 26.0406C16.0661 26.1105 15.7084 26.1716 15.3507 26.2065C14.7515 26.2676 14.1344 26.3026 13.8035 26.3288Z" fill="white"/>
<path d="M23.7841 20.7052C23.0866 20.7664 22.4337 20.8275 21.7808 20.8799C21.6914 20.8886 21.593 20.8362 21.5036 20.8187C21.5573 20.7314 21.5841 20.6179 21.6556 20.5655C22.0939 20.2599 22.5857 20.0765 23.1045 19.963C23.9898 19.7709 24.8842 19.736 25.7785 19.9455C25.8232 19.9543 25.8679 19.9717 25.9126 19.9805C26.2435 20.0852 26.3151 20.1726 26.3151 20.5044C26.2883 21.9539 25.7785 23.2201 24.6964 24.233C24.598 24.3291 24.4817 24.4513 24.3386 24.3466C24.2045 24.2505 24.3297 24.1195 24.3655 24.006C24.6069 23.2812 24.8573 22.5652 25.0899 21.8491C25.1435 21.692 25.1435 21.5261 25.1435 21.3601C25.1435 21.0633 25.0362 20.9061 24.7411 20.8449C24.4102 20.7751 24.0793 20.7489 23.7841 20.7052Z" fill="white"/>
</g>
<defs>
<clipPath id="clip0">
<rect x="0.835632" y="0.0273972" width="25.4795" height="26.3014" fill="white"/>
</clipPath>
</defs>
</svg>
