<svg width="25" height="27" viewBox="0 0 25 27" fill="none" xmlns="http://www.w3.org/2000/svg">
<g clip-path="url(#clip0)">
<path d="M20.8156 13.0281C15.2816 13.0281 9.76828 13.0281 4.27573 13.0281C3.61248 15.5529 5.08407 18.4952 7.57126 19.7476C10.5973 21.2585 13.2711 20.6025 15.9034 17.7C17.0641 19.3699 18.6393 20.4037 20.8156 20.5229C20.8156 22.5109 20.8156 24.4791 20.8156 26.5068C14.1623 26.5068 7.55053 26.5068 0.855835 26.5068C0.876562 17.8192 0.876562 9.09188 0.876562 0.225359C4.23427 2.61097 7.50908 4.95682 10.8253 7.34243C14.1209 4.99658 17.4164 2.65073 20.8156 0.205479C20.8156 4.51946 20.8156 8.6744 20.8156 13.0281Z" fill="white"/>
<path d="M24.7124 15.0758C24.4015 17.2228 22.6605 18.515 20.3806 18.3361C18.6395 18.197 17.5618 16.9843 17.6032 15.0758C19.966 15.0758 22.3081 15.0758 24.7124 15.0758Z" fill="white"/>
<path d="M14.121 15.0559C14.121 17.1036 13.0018 18.2964 11.0742 18.356C8.87719 18.4355 7.17761 17.0439 7.07397 15.0559C9.43681 15.0559 11.7789 15.0559 14.121 15.0559Z" fill="white"/>
</g>
<defs>
<clipPath id="clip0">
<rect x="0.876709" y="0.205479" width="23.8356" height="26.3014" fill="white"/>
</clipPath>
</defs>
</svg>
